<svg id="Calque_1" data-name="Calque 1" xmlns="http://www.w3.org/2000/svg" viewBox="0 0 56.97 46.21"><defs><style>.cls-1{fill:#fff;}.cls-2{fill:none;stroke:#000;stroke-miterlimit:10;stroke-width:2.5px;}</style></defs><path class="cls-1" d="M62.51,49.56v2.95l1.38,1.37h7.24v1.84a12.25,12.25,0,0,1-1.08,5.35A7.84,7.84,0,0,1,67,64.5a8.84,8.84,0,0,1-4.61,1.18,9.38,9.38,0,0,1-4.69-1.13,7.87,7.87,0,0,1-3.14-3.2,9.9,9.9,0,0,1-1.11-4.81V44a12.14,12.14,0,0,1,1.08-5.28,8.3,8.3,0,0,1,3.07-3.52A8.49,8.49,0,0,1,62.19,34a8.18,8.18,0,0,1,3.51.8,8.56,8.56,0,0,1,2.94,2.34,8.72,8.72,0,0,1,1.5,2.69l1.3,1h3.31A7.76,7.76,0,0,0,76.45,39a16.34,16.34,0,0,0-2.37-4.85,14.16,14.16,0,0,0-5.16-4.42,14.69,14.69,0,0,0-6.73-1.57,15.18,15.18,0,0,0-7.82,2,13,13,0,0,0-3.61,3.12l-1.79,0a13.43,13.43,0,0,0-3.45-2.85,15.49,15.49,0,0,0-7.83-1.94,15.45,15.45,0,0,0-7.82,1.94,13.33,13.33,0,0,0-5.25,5.5,17.45,17.45,0,0,0-1.85,8.22v12a17.48,17.48,0,0,0,1.85,8.22,13.24,13.24,0,0,0,5.25,5.49,15.36,15.36,0,0,0,7.82,2,15.4,15.4,0,0,0,7.83-2A12.7,12.7,0,0,0,49,67l2.06,0a12.73,12.73,0,0,0,3.4,2.66,16.25,16.25,0,0,0,7.91,1.86,15.26,15.26,0,0,0,7.81-2A13.4,13.4,0,0,0,75.4,64a18.22,18.22,0,0,0,1.83-8.34v-6l-1.37-1.37h-12Zm-16,6.84a11.07,11.07,0,0,1-1.1,5,8,8,0,0,1-3.09,3.36A8.94,8.94,0,0,1,37.69,66a8.93,8.93,0,0,1-4.63-1.18A8,8,0,0,1,30,61.44a11.07,11.07,0,0,1-1.1-5V44a11.07,11.07,0,0,1,1.1-5,8,8,0,0,1,3.09-3.36,9.62,9.62,0,0,1,9.27,0,8,8,0,0,1,3.09,3.36,11.07,11.07,0,0,1,1.1,5Z" transform="translate(-21.52 -26.89)"/><path class="cls-2" d="M62.51,49.56v2.95l1.38,1.37h7.24v1.84a12.25,12.25,0,0,1-1.08,5.35A7.84,7.84,0,0,1,67,64.5a8.84,8.84,0,0,1-4.61,1.18,9.38,9.38,0,0,1-4.69-1.13,7.87,7.87,0,0,1-3.14-3.2,9.9,9.9,0,0,1-1.11-4.81V44a12.14,12.14,0,0,1,1.08-5.28,8.3,8.3,0,0,1,3.07-3.52A8.49,8.49,0,0,1,62.19,34a8.18,8.18,0,0,1,3.51.8,8.56,8.56,0,0,1,2.94,2.34,8.72,8.72,0,0,1,1.5,2.69l1.3,1h3.31A7.76,7.76,0,0,0,76.45,39a16.34,16.34,0,0,0-2.37-4.85,14.16,14.16,0,0,0-5.16-4.42,14.69,14.69,0,0,0-6.73-1.57,15.18,15.18,0,0,0-7.82,2,13,13,0,0,0-3.61,3.12l-1.79,0a13.43,13.43,0,0,0-3.45-2.85,15.49,15.49,0,0,0-7.83-1.94,15.45,15.45,0,0,0-7.82,1.94,13.33,13.33,0,0,0-5.25,5.5,17.45,17.45,0,0,0-1.85,8.22v12a17.48,17.48,0,0,0,1.85,8.22,13.24,13.24,0,0,0,5.25,5.49,15.36,15.36,0,0,0,7.82,2,15.4,15.4,0,0,0,7.83-2A12.7,12.7,0,0,0,49,67l2.06,0a12.73,12.73,0,0,0,3.4,2.66,16.25,16.25,0,0,0,7.91,1.86,15.26,15.26,0,0,0,7.81-2A13.4,13.4,0,0,0,75.4,64a18.22,18.22,0,0,0,1.83-8.34v-6l-1.37-1.37h-12Z" transform="translate(-21.52 -26.89)"/><path class="cls-2" d="M46.52,56.4a11.07,11.07,0,0,1-1.1,5,8,8,0,0,1-3.09,3.36A8.94,8.94,0,0,1,37.69,66a8.93,8.93,0,0,1-4.63-1.18A8,8,0,0,1,30,61.44a11.07,11.07,0,0,1-1.1-5V44a11.07,11.07,0,0,1,1.1-5,8,8,0,0,1,3.09-3.36,9.62,9.62,0,0,1,9.27,0,8,8,0,0,1,3.09,3.36,11.07,11.07,0,0,1,1.1,5Z" transform="translate(-21.52 -26.89)"/></svg>